<svg xmlns="http://www.w3.org/2000/svg" viewBox="0 0 24 24" fill="black">
  <path d="M12 0C5.37 0 0 5.37 0 12c0 5.3 3.438 9.8 8.205 11.385.6.113.82-.263.82-.583 0-.287-.01-1.047-.015-2.057-3.338.724-4.042-1.61-4.042-1.61-.546-1.385-1.335-1.753-1.335-1.753-1.09-.745.082-.73.082-.73 1.205.084 1.84 1.238 1.84 1.238 1.07 1.834 2.807 1.304 3.492.997.108-.775.418-1.305.76-1.605-2.665-.304-5.467-1.332-5.467-5.932 0-1.31.468-2.382 1.235-3.222-.124-.303-.535-1.523.117-3.176 0 0 1.008-.322 3.3 1.23.957-.266 1.983-.399 3.003-.404 1.02.005 2.047.138 3.006.404 2.29-1.552 3.296-1.23 3.296-1.23.654 1.653.243 2.873.12 3.176.77.84 1.233 1.912 1.233 3.222 0 4.61-2.807 5.625-5.48 5.922.43.37.814 1.096.814 2.21 0 1.596-.015 2.88-.015 3.27 0 .322.216.7.825.58C20.565 21.796 24 17.296 24 12c0-6.63-5.37-12-12-12z"/>
</svg>
